<?xml version="1.0" standalone="no"?>
<!DOCTYPE svg PUBLIC "-//W3C//DTD SVG 20010904//EN"
 "http://www.w3.org/TR/2001/REC-SVG-20010904/DTD/svg10.dtd">
<svg version="1.0" xmlns="http://www.w3.org/2000/svg"
 width="580.000000pt" height="580.000000pt" viewBox="0 0 580.000000 580.000000"
 preserveAspectRatio="xMidYMid meet">
<metadata>
Created by potrace 1.14, written by Peter Selinger 2001-2017
</metadata>
<g transform="translate(0.000000,580.000000) scale(0.100000,-0.100000)"
fill="#000000" stroke="none">
<path d="M2699 5105 c-2 -2 -31 -6 -64 -9 -160 -15 -471 -93 -509 -128 -6 -4
-16 -8 -23 -8 -20 0 -217 -99 -288 -145 -33 -21 -94 -64 -136 -96 l-76 -59
-139 -4 c-76 -2 -175 -11 -219 -20 -83 -18 -286 -83 -295 -95 -3 -4 -21 -13
-40 -21 -19 -7 -46 -21 -60 -30 -14 -9 -32 -19 -40 -22 -18 -7 -164 -111 -199
-142 -37 -33 -174 -171 -191 -192 -128 -161 -218 -312 -279 -467 -15 -40 -32
-81 -36 -92 -4 -11 -9 -24 -11 -30 -1 -5 -14 -53 -28 -105 -48 -183 -61 -284
-61 -495 1 -227 21 -381 76 -560 11 -38 23 -80 26 -93 3 -12 9 -25 14 -28 5
-3 9 -12 9 -19 0 -30 105 -235 175 -340 118 -178 236 -303 405 -427 37 -26 72
-48 78 -48 7 0 12 -4 12 -10 0 -5 6 -10 13 -10 6 0 23 -9 37 -20 14 -11 33
-20 42 -20 9 0 18 -4 20 -9 3 -10 133 -63 200 -82 24 -7 45 -13 48 -14 93 -28
190 -39 345 -39 156 0 204 6 375 48 8 2 38 13 67 24 l51 19 74 -69 c40 -39 89
-82 108 -97 19 -14 40 -31 45 -37 15 -17 193 -137 245 -165 25 -13 47 -26 50
-29 11 -12 229 -109 290 -130 36 -12 74 -26 85 -30 93 -37 334 -88 446 -95 26
-1 51 -5 56 -8 11 -7 382 -1 433 7 19 3 49 8 65 11 17 2 48 7 70 11 65 9 193
43 290 76 99 33 375 166 375 179 0 5 5 9 11 9 11 0 100 61 127 87 7 7 17 13
22 13 12 0 260 245 260 257 0 4 10 19 23 33 42 46 115 166 165 271 59 124 102
253 127 389 18 94 23 292 11 400 -4 36 -8 82 -9 103 -1 20 -6 37 -11 37 -5 0
-7 2 -4 5 3 4 1 25 -4 48 -5 23 -11 49 -13 57 -2 8 -8 26 -13 40 -5 14 -10 29
-10 33 0 8 -8 31 -39 112 -26 68 -106 230 -115 233 -4 2 -8 7 -8 12 0 8 -59
109 -70 120 -3 3 -25 32 -50 65 -24 33 -54 71 -67 85 -13 14 -23 29 -23 35 -7
147 -64 386 -115 486 -9 16 -14 30 -13 31 1 2 -20 46 -46 98 -54 108 -152 259
-220 340 -94 111 -260 273 -270 263 -3 -4 -6 -1 -6 5 0 6 -39 39 -87 74 -78
57 -114 81 -188 125 -55 33 -288 143 -345 162 -36 13 -74 27 -85 32 -18 7 -88
27 -125 34 -8 2 -15 4 -15 5 0 3 -157 36 -220 46 -16 2 -46 7 -65 10 -40 7
-436 15 -441 9z"/>
</g>
</svg>
